<?xml version="1.0" standalone="no"?>
<!DOCTYPE svg PUBLIC "-//W3C//DTD SVG 20010904//EN"
 "http://www.w3.org/TR/2001/REC-SVG-20010904/DTD/svg10.dtd">
<svg version="1.0" xmlns="http://www.w3.org/2000/svg"
 width="565.000000pt" height="565.000000pt" viewBox="0 0 565.000000 565.000000"
 preserveAspectRatio="xMidYMid meet">
<metadata>
Created by potrace 1.11, written by Peter Selinger 2001-2013
</metadata>
<g transform="translate(0.000000,565.000000) scale(0.100000,-0.100000)"
fill="#000000" stroke="none">
<path d="M2649 5336 c-2 -2 -39 -7 -82 -11 -43 -3 -86 -8 -95 -10 -9 -1 -37
-6 -62 -10 -25 -4 -54 -9 -65 -11 -11 -2 -33 -7 -50 -9 -16 -3 -38 -8 -47 -11
-9 -3 -25 -6 -35 -8 -150 -30 -431 -133 -597 -220 -672 -352 -1136 -924 -1321
-1631 -15 -57 -51 -246 -60 -320 -11 -78 -14 -432 -5 -510 13 -110 21 -169 25
-185 2 -8 7 -31 10 -50 3 -19 17 -78 30 -130 203 -803 801 -1461 1600 -1758
100 -38 256 -86 309 -96 11 -2 41 -9 66 -15 53 -12 87 -18 149 -27 25 -4 55
-8 66 -10 134 -25 581 -25 725 0 14 3 43 7 65 10 22 3 51 8 65 11 14 3 34 7
46 9 713 143 1342 578 1719 1187 172 279 294 611 339 931 29 198 29 546 1 703
-27 153 -48 255 -61 294 -37 117 -48 151 -71 216 -14 39 -43 108 -64 153 -22
46 -39 85 -39 87 0 2 -25 48 -56 102 -118 204 -267 399 -424 553 -216 211
-393 339 -665 480 -146 76 -423 181 -538 204 -12 3 -62 14 -112 25 -95 21
-125 26 -215 36 -30 4 -66 9 -80 12 -30 6 -465 14 -471 9z"/>
</g>
</svg>
