<?xml version="1.0" standalone="no"?>
<!DOCTYPE svg PUBLIC "-//W3C//DTD SVG 20010904//EN"
 "http://www.w3.org/TR/2001/REC-SVG-20010904/DTD/svg10.dtd">
<svg version="1.0" xmlns="http://www.w3.org/2000/svg"
 width="260.000000pt" height="260.000000pt" viewBox="0 0 260.000000 260.000000"
 preserveAspectRatio="xMidYMid meet">
<metadata>
Created by potrace 1.11, written by Peter Selinger 2001-2013
</metadata>
<g transform="translate(0.000000,260.000000) scale(0.100000,-0.100000)"
fill="#000000" stroke="none">
<path d="M475 2452 c-49 -31 -132 -128 -139 -162 -7 -35 1 -80 15 -80 4 0 11
17 14 38 11 60 15 70 42 102 56 67 149 87 229 51 55 -25 117 -82 148 -136 30
-51 33 -64 9 -43 -60 53 -174 74 -240 46 -51 -22 -113 -80 -150 -140 -27 -44
-44 -61 -65 -65 -36 -7 -40 -15 -28 -50 9 -26 9 -26 -5 -9 -8 10 -16 24 -18
29 -2 6 -11 8 -20 4 -16 -6 -14 -13 14 -69 41 -82 73 -123 116 -149 32 -20 40
-21 85 -10 27 6 71 11 97 11 l47 0 2 -37 c4 -47 8 -53 38 -53 14 0 22 4 19 10
-3 6 6 15 21 20 34 13 109 -7 109 -30 0 -8 11 -18 25 -22 25 -8 30 -5 56 39
11 17 14 16 60 -16 27 -19 52 -40 57 -47 11 -18 72 -54 91 -54 27 0 18 22 -26
67 -38 39 -41 44 -30 68 21 45 14 62 -49 130 -55 59 -147 135 -163 135 -3 0
-6 -8 -7 -17 0 -12 -5 -9 -13 10 -7 15 -25 35 -41 43 -27 14 -31 14 -41 -1
-10 -14 -13 -12 -18 10 -9 37 -32 25 -28 -14 1 -20 -2 -30 -8 -26 -5 3 -10 17
-10 30 0 25 -18 43 -29 29 -8 -12 -111 -18 -111 -7 0 6 15 27 33 47 26 31 39
38 69 38 93 0 307 -141 490 -325 55 -55 64 -70 70 -125 6 -44 23 -27 26 25 4
63 -12 96 -80 175 -46 54 -48 59 -34 79 20 29 12 43 -48 86 -28 20 -116 102
-196 183 -159 161 -202 189 -298 197 -44 3 -64 0 -87 -15z m325 -653 c0 -15
-30 -23 -42 -11 -6 6 -7 15 -4 20 7 12 46 4 46 -9z"/>
<path d="M1998 2452 c-63 -23 -127 -75 -242 -198 -53 -57 -127 -126 -165 -154
-79 -58 -88 -73 -63 -98 17 -16 16 -20 -34 -77 -64 -75 -84 -113 -84 -164 0
-79 24 -98 33 -25 4 41 13 54 78 121 131 132 256 226 379 284 90 43 124 42
166 -4 47 -51 44 -61 -13 -53 -27 3 -57 7 -68 8 -15 2 -21 -4 -23 -22 -2 -14
-8 -29 -12 -34 -6 -5 -7 7 -3 29 5 30 3 37 -8 33 -8 -2 -19 -14 -25 -26 -8
-17 -12 -18 -20 -6 -8 13 -13 13 -41 -1 -20 -10 -33 -24 -33 -36 0 -21 -16
-26 -22 -7 -11 31 -211 -156 -224 -208 -4 -14 -2 -30 5 -37 20 -20 12 -40 -31
-84 -32 -32 -39 -46 -31 -54 15 -15 66 5 91 35 10 11 39 36 65 54 l47 34 12
-32 c9 -29 14 -31 41 -26 16 3 33 6 38 6 5 0 9 9 9 20 0 14 10 22 39 30 41 11
91 0 91 -20 0 -5 9 -10 20 -10 23 0 44 43 37 72 -4 16 2 18 45 18 27 0 69 -5
92 -11 37 -9 49 -8 82 9 53 27 78 56 119 137 24 49 31 73 24 80 -7 7 -18 1
-36 -20 -18 -22 -22 -24 -13 -7 16 32 10 43 -30 56 -24 7 -41 23 -56 50 -63
111 -140 166 -235 166 -55 0 -127 -26 -161 -57 -25 -22 -22 -9 8 42 64 109
191 179 279 152 58 -17 132 -91 140 -142 11 -65 16 -73 27 -48 20 42 0 92 -60
156 -84 89 -136 104 -234 69z m-122 -643 c9 -16 -12 -33 -31 -25 -14 5 -15 9
-5 21 15 18 26 19 36 4z"/>
<path d="M390 1742 c-62 -36 -90 -72 -56 -72 9 0 13 -6 10 -14 -8 -22 15 -30
35 -12 22 20 32 21 25 2 -5 -14 43 -52 54 -42 3 3 14 -1 24 -10 19 -18 61 -18
372 7 135 10 152 10 187 -7 28 -12 43 -14 50 -7 7 7 -7 20 -48 43 -61 34 -160
56 -375 84 -126 16 -166 28 -174 51 -9 23 -34 18 -104 -23z"/>
<path d="M2140 1769 c0 -16 -79 -46 -140 -53 -215 -26 -338 -50 -392 -77 -31
-16 -60 -33 -63 -39 -13 -21 5 -23 45 -5 38 17 51 17 193 5 246 -20 337 -23
360 -12 12 6 37 16 55 24 23 9 32 18 28 31 -5 21 2 22 25 1 20 -18 43 -10 35
12 -3 8 1 14 9 14 24 0 17 27 -12 48 -69 49 -143 75 -143 51z"/>
<path d="M375 1460 c-8 -14 3 -30 21 -30 8 0 14 9 14 20 0 21 -24 28 -35 10z"/>
<path d="M1019 1059 c-14 -26 -4 -80 19 -103 9 -10 49 -36 87 -57 39 -22 88
-51 110 -65 59 -37 114 -29 207 29 40 25 89 53 109 62 48 23 73 66 65 110 -4
19 -12 37 -17 41 -8 4 -9 -4 -4 -25 10 -47 -13 -74 -84 -100 -33 -12 -73 -32
-88 -45 -66 -55 -129 -62 -184 -21 -31 23 -94 55 -162 83 -31 13 -50 52 -41
88 8 30 -1 31 -17 3z"/>
<path d="M556 803 c21 -32 24 -45 20 -88 l-6 -50 19 40 c27 56 26 69 -14 104
-46 40 -50 39 -19 -6z"/>
<path d="M2057 807 c-42 -36 -43 -45 -17 -102 l18 -40 -1 58 c0 44 4 64 22 87
27 37 25 37 -22 -3z"/>
<path d="M742 719 c3 -8 29 -33 59 -55 47 -36 63 -59 119 -165 78 -149 158
-258 209 -287 59 -33 168 -48 257 -34 41 7 92 21 113 32 51 26 132 137 213
292 35 66 73 128 86 137 45 31 92 73 92 83 0 5 -5 6 -11 3 -6 -4 -101 -8 -212
-10 -111 -1 -217 -6 -235 -10 -31 -7 -56 -28 -100 -84 l-19 -24 -33 47 c-45
63 -72 69 -316 71 -111 1 -207 6 -214 10 -8 5 -11 3 -8 -6z"/>
</g>
</svg>
